IKResults
version=1
nRows=27
nColumns=17
inDegrees=yes

Units are S.I. units (second, meters, Newtons, ...)
If the header above contains a line with 'inDegrees', this indicates whether rotational values are in degrees (yes) or radians (no).

endheader
time	ground_to_pelvis_rx	ground_to_pelvis_ry	ground_to_pelvis_rz	ground_to_pelvis_tx	ground_to_pelvis_ty	ground_to_pelvis_tz	rx	ry	rz	femur_l_to_tibia_l_rz	tibia_l_to_metatarsal_l_rz	rx	ry	rz	femur_r_to_tibia_r_rz	tibia_r_to_metatarsal_r_rz
     17.00000000	     27.17285209	     38.57686691	    -22.60581325	     -0.68214925	     -0.33985883	     -3.61320902	    -59.71538921	     22.15896802	     12.40222391	     43.36948105	     14.11032242	    -60.04665183	     16.71703946	     23.46523049	     45.05676298	     33.21579337
     17.01700000	     26.92066718	     38.49671968	    -23.06130290	     -0.68129185	     -0.34068436	     -3.61139966	    -59.59407179	     21.50692917	     12.55263709	     43.92312276	     13.63839221	    -59.91526093	     14.72052854	     22.89486953	     45.80184868	     33.39540084
     17.03300000	     26.45514445	     38.49128600	    -23.51076699	     -0.68062034	     -0.34178569	     -3.60826682	    -59.25645945	     21.02334985	     12.84922271	     44.44065152	     12.79057804	    -59.76217359	     12.79002731	     22.58733552	     46.57409209	     33.95997582
     17.05000000	     25.99875563	     38.75845393	    -23.97055993	     -0.67997118	     -0.34276576	     -3.60435142	    -58.85870157	     21.00464075	     13.33928733	     44.73824950	     11.95682671	    -59.27984554	     10.98127152	     22.21711065	     47.42761717	     33.31498580
     17.06700000	     25.60978658	     39.61767313	    -24.31500811	     -0.67857588	     -0.34422130	     -3.59968600	    -58.36669661	     20.24491361	     13.12969128	     45.36177741	     11.90550358	    -58.88544577	      9.17311738	     21.45887350	     48.65774396	     32.52258730
     17.08300000	     24.32951732	     40.31730858	    -23.88942399	     -0.67459126	     -0.34645727	     -3.59334714	    -57.10574478	     20.25049621	     13.40285521	     45.80417814	     11.28306573	    -58.21996775	      7.76159489	     21.14617046	     50.32843878	     31.09739132
     17.10000000	     24.53789459	     41.32238299	    -24.65514115	     -0.67415959	     -0.34709068	     -3.58840238	    -56.86504831	     19.73926511	     13.30250959	     46.22795627	     10.93417871	    -58.66967291	      5.53669423	     20.14665972	     52.50230770	     28.97574799
     17.11700000	     24.57437842	     42.01877665	    -24.90176365	     -0.67258010	     -0.34709497	     -3.58472090	    -56.17193833	     20.32021930	     13.56595941	     46.01113247	     10.38767158	    -59.42961617	      4.07707232	     19.01259199	     54.56899549	     26.86719909
     17.13300000	     24.45967677	     42.77512196	    -24.64707625	     -0.66961472	     -0.34780103	     -3.58141261	    -55.42436439	     21.61926494	     13.91770285	     45.75143640	      9.94842544	    -60.09457937	      3.49487175	     17.66078894	     56.66349472	     22.95616045
     17.15000000	     25.18252561	     43.90904236	    -25.01965244	     -0.66830336	     -0.34831962	     -3.57883377	    -54.79801523	     21.59094620	     13.16696735	     45.54947380	      9.53671228	    -61.67284939	      3.57354930	     16.34884330	     58.37143327	     19.63391320
     17.16700000	     25.22210994	     44.65932695	    -24.92737475	     -0.66592520	     -0.34907586	     -3.57586511	    -53.79771450	     21.45566912	     12.50409470	     45.48278972	      8.85009062	    -63.23389443	      4.16018465	     15.30562300	     59.18323036	     18.12622784
     17.18300000	     24.17603736	     45.04735177	    -24.42861460	     -0.66308704	     -0.35036591	     -3.57014885	    -52.78557635	     21.15443111	     12.76556893	     45.80728457	      8.58011473	    -63.84084691	      5.42859462	     15.15746978	     59.00535729	     16.62511492
     17.20000000	     23.20608763	     45.14297483	    -24.26440040	     -0.66153288	     -0.35116689	     -3.56368163	    -52.31995396	     20.96911805	     13.76220429	     46.28103642	      8.27628601	    -64.26677118	      6.70558723	     15.32548127	     57.88254642	     15.63666772
     17.21700000	     21.83338251	     45.04372575	    -23.60535461	     -0.65830588	     -0.35195189	     -3.55729721	    -51.25859783	     20.91240196	     14.57654936	     46.47152324	      8.09560668	    -64.96464497	      8.14267333	     15.65971830	     56.10888462	     17.16262616
     17.23300000	     19.48294013	     44.49816115	    -22.71469955	     -0.65490086	     -0.35289393	     -3.54797127	    -49.89687165	     21.10253897	     16.37826232	     46.77900159	      7.37752632	    -64.74012370	      9.85832514	     16.94698120	     53.33498853	     19.15932937
     17.25000000	     18.44780297	     44.06124032	    -22.93818666	     -0.65429952	     -0.35255575	     -3.54003535	    -49.59597346	     20.79501774	     18.02093528	     47.21725779	      7.20906546	    -65.20608449	     11.28162014	     17.99799683	     50.14838554	     22.20826700
     17.26700000	     17.49756483	     43.68683209	    -23.22991821	     -0.65353569	     -0.35249274	     -3.53186346	    -49.10654245	     20.32038425	     19.47909146	     47.66587795	      6.76238380	    -65.29849703	     12.72715518	     19.02366203	     46.66741892	     24.92587799
     17.28300000	     16.74917231	     43.45686464	    -23.73756841	     -0.65294360	     -0.35234034	     -3.52299628	    -48.59947942	     19.68074085	     20.90235510	     48.14693610	      6.10312617	    -65.45820772	     14.10910606	     20.24692513	     43.19732655	     28.20848746
     17.30000000	     16.57757554	     43.29526382	    -24.52923672	     -0.65363196	     -0.35201777	     -3.51536964	    -48.32905454	     18.54567431	     21.80492972	     48.68815924	      5.91483777	    -65.72425573	     15.65374077	     21.50238996	     39.93472145	     30.97118215
     17.31700000	     16.03235321	     43.01940810	    -24.96201978	     -0.65347470	     -0.35182775	     -3.50730538	    -48.04913632	     17.93565900	     23.11496358	     49.21191036	      5.83507146	    -65.66924237	     16.58233638	     22.84002776	     36.89556420	     34.55932928
     17.33300000	     16.09007283	     43.28133088	    -25.82562786	     -0.65413938	     -0.35179408	     -3.49875503	    -48.06332114	     16.85199870	     24.22087487	     49.82390513	      5.85036148	    -65.36835834	     16.66832175	     23.75715409	     34.53837254	     37.66572071
     17.35000000	     16.28966442	     43.64951353	    -26.50278987	     -0.65371118	     -0.35194472	     -3.49037626	    -48.91077996	     17.30168518	     26.40160522	     50.32002518	      6.23234683	    -64.26015701	     16.10682689	     24.37703486	     32.63262810	     39.23674102
     17.36700000	     17.36301128	     44.77073078	    -27.93936328	     -0.65513297	     -0.35157485	     -3.48151414	    -48.69773354	     15.22247038	     26.43402094	     50.68425669	      6.47048251	    -62.62859416	     14.94796860	     24.52631097	     31.30785049	     39.49347057
     17.38300000	     19.78011878	     46.34538319	    -28.95007951	     -0.65475590	     -0.35233110	     -3.47777854	    -48.90269122	     14.00028752	     25.00022066	     50.64615367	      7.28187834	    -62.03422586	     14.65075234	     23.62113911	     32.91529216	     35.68768188
     17.40000000	     23.10269993	     48.51026054	    -30.36177620	     -0.65410920	     -0.35358290	     -3.47398858	    -49.05044627	     12.28402799	     22.70605402	     50.77056326	      7.84524153	    -61.91315684	     14.81303372	     22.18608976	     35.04884577	     32.26532743
     17.41700000	     25.90819539	     50.39467015	    -31.35994685	     -0.65183359	     -0.35468347	     -3.46942867	    -48.82831824	     10.76587776	     20.69095333	     50.70892097	      9.05875009	    -61.82106058	     15.03143276	     20.68295253	     36.76018432	     29.75809176
     17.43300000	     29.35913830	     51.88236701	    -32.97420518	     -0.65149856	     -0.35420531	     -3.46597424	    -49.08499590	      9.24118480	     18.62375648	     50.33154884	      9.90195976	    -61.93329100	     14.76766361	     18.90304341	     37.91025085	     28.41812771
